<?xml version="1.0" encoding="UTF-8" standalone="no"?>
<!-- Created with Inkscape (http://www.inkscape.org/) -->

<svg
   width="3in"
   height="4in"
   viewBox="0 0 76.200002 101.6"
   version="1.1"
   id="svg946"
   inkscape:version="1.1.1 (3bf5ae0d25, 2021-09-20)"
   sodipodi:docname="award.svg"
   xmlns:inkscape="http://www.inkscape.org/namespaces/inkscape"
   xmlns:sodipodi="http://sodipodi.sourceforge.net/DTD/sodipodi-0.dtd"
   xmlns="http://www.w3.org/2000/svg"
   xmlns:svg="http://www.w3.org/2000/svg">
  <sodipodi:namedview
     id="namedview948"
     pagecolor="#ffffff"
     bordercolor="#666666"
     borderopacity="1.0"
     inkscape:pageshadow="2"
     inkscape:pageopacity="0.0"
     inkscape:pagecheckerboard="0"
     inkscape:document-units="mm"
     showgrid="false"
     inkscape:zoom="1.8116735"
     inkscape:cx="80.864462"
     inkscape:cy="188.49975"
     inkscape:window-width="1920"
     inkscape:window-height="1137"
     inkscape:window-x="-8"
     inkscape:window-y="-8"
     inkscape:window-maximized="1"
     inkscape:current-layer="layer1"
     units="in"
     width="8.26772in" />
  <defs
     id="defs943" />
  <g
     inkscape:label="Layer 1"
     inkscape:groupmode="layer"
     id="layer1"
     style="display:inline">
    <path
       style="fill:#000000;stroke-width:0.206562"
       d="m 17.896092,27.869475 -2.427093,-2.457276 v -3.474998 -3.474996 l 2.283833,-2.290331 2.283834,-2.290331 -1.550031,-4.2663937 C 17.494401,6.8840599 16.56104,4.7129099 15.892961,3.5818275 15.318957,2.610017 14.849316,1.7227473 14.849316,1.6101173 c 0,-0.1300523 1.413358,-0.1842734 3.873021,-0.1485839 l 3.87302,0.056203 1.764796,5.3385296 c 1.129524,3.41682 1.890477,5.408863 2.113933,5.533915 0.192026,0.107468 1.117486,0.168366 2.056585,0.135339 l 1.707444,-0.06005 0.05635,-3.7810005 C 30.340956,5.5644228 30.282979,4.6173179 29.963122,3.2665297 29.749897,2.366213 29.623842,1.581185 29.683004,1.5220237 29.742159,1.4628635 31.494696,1.41446 33.577521,1.41446 c 2.893743,0 3.786114,0.060907 3.783406,0.2582016 -0.0016,0.1420115 -0.186252,0.9553455 -0.409578,1.8074096 -0.378731,1.4450052 -0.406282,2.2822776 -0.409576,12.4479198 -0.0037,10.270247 0.02024,10.984674 0.409576,12.389513 0.227216,0.819941 0.413122,1.608859 0.413122,1.753155 0,0.20791 -1.76828,0.261706 -8.520639,0.259235 l -8.520644,-0.0029 z m 12.118567,-2.619322 c 0.280411,-0.107604 0.326737,-0.628917 0.326737,-3.676785 0,-2.486792 -0.07432,-3.625712 -0.247873,-3.79928 -0.163628,-0.163628 -1.043511,-0.247874 -2.588881,-0.247874 -2.096261,0 -2.449044,0.05474 -3.374393,0.523658 -1.433141,0.726226 -1.842993,1.469124 -1.843962,3.342354 -0.0011,2.009207 0.365995,2.736826 1.726688,3.423039 0.946267,0.477219 1.310795,0.536498 3.368032,0.547704 1.268805,0.0068 2.453949,-0.04384 2.633652,-0.112819 z m 8.799279,5.031206 c 0.0016,-0.0284 0.186255,-0.748779 0.409582,-1.600845 0.37954,-1.44811 0.406042,-2.277153 0.406042,-12.703507 0,-10.4263529 -0.02645,-11.2554022 -0.406042,-12.7035069 -0.223327,-0.8520628 -0.407637,-1.6189223 -0.409582,-1.7041285 -0.0016,-0.085203 3.8322,-0.1549204 8.520331,-0.1549204 h 8.523872 l 2.423868,2.4301948 2.423863,2.4301953 v 3.6084834 3.6084843 l -2.25092,2.275405 -2.250918,2.275403 1.60048,4.261304 c 0.926999,2.468135 2.047985,5.032315 2.663925,6.093549 l 1.063433,1.832253 -3.857876,0.05633 c -2.121832,0.03099 -3.92418,-0.0155 -4.005218,-0.103282 -0.08103,-0.08779 -0.906374,-2.510959 -1.834089,-5.384831 -1.503159,-4.656477 -1.743155,-5.246653 -2.204943,-5.422226 -0.743459,-0.282661 -3.250815,-0.246725 -3.548399,0.05086 -0.17351,0.173507 -0.247878,1.310058 -0.247878,3.788336 0,2.864328 0.0789,3.848946 0.413127,5.155757 0.227216,0.888408 0.413119,1.693376 0.413119,1.788813 0,0.09543 -1.7661,0.173517 -3.924656,0.173517 -2.158566,0 -3.923071,-0.02325 -3.921121,-0.05163 z m 13.42653,-16.578348 c 1.28872,-0.653045 1.855446,-1.657758 1.855446,-3.289398 0,-1.7438579 -0.629559,-2.8602496 -1.950879,-3.4594731 C 51.170958,6.5123911 50.888892,6.483218 48.512851,6.5784779 L 45.93675,6.6817613 45.88,10.165985 c -0.03897,2.394307 0.01741,3.573536 0.180215,3.769739 0.177385,0.213738 0.855482,0.285517 2.69727,0.285517 2.217175,0 2.561365,-0.05121 3.482976,-0.518226 z"
       id="path914" />
    <text
       xml:space="preserve"
       style="font-style:normal;font-weight:normal;font-size:12.3259px;line-height:1.25;font-family:sans-serif;fill:#000000;fill-opacity:1;stroke:none;stroke-width:0.154312"
       x="2.2915297"
       y="66.127914"
       id="text1836"><tspan
         sodipodi:role="line"
         id="tspan1834"
         style="font-style:normal;font-variant:normal;font-weight:normal;font-stretch:normal;font-size:12.3259px;font-family:Brothers;-inkscape-font-specification:Brothers;stroke-width:0.154312"
         x="2.2915297"
         y="66.127914">Mike K7MCK</tspan></text>
    <text
       xml:space="preserve"
       style="font-style:normal;font-weight:normal;font-size:7.92378px;line-height:1.25;font-family:sans-serif;fill:#000000;fill-opacity:1;stroke:none;stroke-width:0.183075"
       x="15.152264"
       y="52.977314"
       id="text2764"><tspan
         sodipodi:role="line"
         id="tspan2762"
         style="font-style:normal;font-variant:normal;font-weight:500;font-stretch:normal;font-size:7.92378px;font-family:Brothers;-inkscape-font-specification:'Brothers Medium';stroke-width:0.183075"
         x="15.152264"
         y="52.977314">FIRST PLACE</tspan></text>
    <text
       xml:space="preserve"
       style="font-style:normal;font-weight:normal;font-size:6.16294px;line-height:1.25;font-family:sans-serif;fill:#000000;fill-opacity:1;stroke:none;stroke-width:0.140122"
       x="5.7427721"
       y="91.052742"
       id="text2764-2"><tspan
         sodipodi:role="line"
         id="tspan2762-1"
         style="font-style:normal;font-variant:normal;font-weight:normal;font-stretch:normal;font-size:6.16294px;font-family:Brothers;-inkscape-font-specification:Brothers;stroke-width:0.140122"
         x="5.7427721"
         y="91.052742">Repeater Roundabout</tspan></text>
    <text
       xml:space="preserve"
       style="font-style:normal;font-weight:normal;font-size:7.92378px;line-height:1.25;font-family:sans-serif;fill:#000000;fill-opacity:1;stroke:none;stroke-width:0.183075"
       x="28.741495"
       y="100.4285"
       id="text2764-8"><tspan
         sodipodi:role="line"
         id="tspan2762-9"
         style="font-style:normal;font-variant:normal;font-weight:normal;font-stretch:normal;font-size:7.92378px;font-family:Brothers;-inkscape-font-specification:Brothers;stroke-width:0.183075"
         x="28.741495"
         y="100.4285">2022</tspan></text>
    <path
       style="fill:#000000;stroke:#000000;stroke-width:0.248522;stroke-miterlimit:4;stroke-dasharray:none;stroke-opacity:1"
       d="m 32.614202,77.506871 c -1.259384,-0.125006 -2.586068,-0.547662 -3.468618,-1.10504 -1.031635,-0.651535 -1.518238,-0.887665 -2.357883,-1.1442 -0.644896,-0.197034 -1.444764,-0.336351 -2.096926,-0.365228 -0.382439,-0.01694 -0.492471,-0.01509 -0.916279,0.01534 -1.181869,0.08487 -2.344285,0.423881 -3.335985,0.972943 -0.236036,0.13068 -0.458665,0.257653 -0.494732,0.282159 -0.08127,0.05523 -0.280656,0.05873 -0.280656,0.0049 0,-0.06307 0.721099,-0.45819 1.193185,-0.65378 0.790952,-0.3277 1.836248,-0.581569 2.650973,-0.643836 0.170991,-0.01306 0.577276,-0.02375 0.902854,-0.02375 0.753269,0 1.29868,0.05476 1.943925,0.195194 0.859624,0.187085 1.84217,0.56698 2.449491,0.947085 0.156621,0.09803 0.437814,0.273012 0.624871,0.38886 0.920738,0.57023 2.326533,1.012093 3.50704,1.102316 1.031627,0.07884 2.063744,-0.03567 3.071798,-0.340796 0.625103,-0.189216 1.371329,-0.518535 1.799013,-0.793926 1.1292,-0.727107 1.856847,-1.042717 2.979358,-1.292263 0.68482,-0.152245 1.203911,-0.20647 1.976503,-0.20647 0.746464,0 1.090697,0.02645 1.713373,0.131652 0.968103,0.16356 2.006501,0.539338 2.758832,0.998372 0.878364,0.535935 1.091884,0.653141 1.551218,0.851504 1.276341,0.551183 2.657161,0.769651 4.056617,0.641823 1.21512,-0.110998 2.531886,-0.557728 3.589421,-1.217781 0.0865,-0.05399 0.286471,-0.05912 0.286471,-0.0073 0,0.115113 -1.289117,0.718624 -1.972978,0.923669 -0.848979,0.254555 -1.592359,0.367092 -2.511042,0.380138 -0.690194,0.0098 -1.188698,-0.02552 -1.815867,-0.128597 -0.905299,-0.148814 -2.028342,-0.547823 -2.728344,-0.96936 -0.15538,-0.09358 -0.483388,-0.292305 -0.728903,-0.441633 -1.011848,-0.615442 -2.286802,-1.009417 -3.563159,-1.101064 -0.423811,-0.03043 -0.533844,-0.03226 -0.916279,-0.01534 -1.36778,0.06056 -2.840256,0.50491 -3.905823,1.17865 -1.152668,0.728811 -1.942364,1.061919 -3.072303,1.295943 -0.887758,0.183867 -1.935124,0.234573 -2.889166,0.139876 z"
       id="path69691" />
  </g>
</svg>
