<?xml version="1.0" encoding="UTF-8" standalone="no"?>
<!-- Created with Inkscape (http://www.inkscape.org/) -->

<svg
   width="3in"
   height="4in"
   viewBox="0 0 76.200002 101.6"
   version="1.1"
   id="svg946"
   inkscape:version="1.1.1 (3bf5ae0d25, 2021-09-20)"
   sodipodi:docname="award.svg"
   xmlns:inkscape="http://www.inkscape.org/namespaces/inkscape"
   xmlns:sodipodi="http://sodipodi.sourceforge.net/DTD/sodipodi-0.dtd"
   xmlns="http://www.w3.org/2000/svg"
   xmlns:svg="http://www.w3.org/2000/svg">
  <sodipodi:namedview
     id="namedview948"
     pagecolor="#ffffff"
     bordercolor="#666666"
     borderopacity="1.0"
     inkscape:pageshadow="2"
     inkscape:pageopacity="0.0"
     inkscape:pagecheckerboard="0"
     inkscape:document-units="mm"
     showgrid="false"
     inkscape:zoom="1.2810466"
     inkscape:cx="94.844326"
     inkscape:cy="247.06362"
     inkscape:window-width="1920"
     inkscape:window-height="1137"
     inkscape:window-x="-8"
     inkscape:window-y="-8"
     inkscape:window-maximized="1"
     inkscape:current-layer="layer1"
     units="in"
     width="8.26772in" />
  <defs
     id="defs943" />
  <g
     inkscape:label="Layer 1"
     inkscape:groupmode="layer"
     id="layer1"
     style="display:inline">
    <path
       style="fill:#000000;stroke-width:0.165535"
       d="m 21.827014,29.965198 -1.945037,-1.969225 v -2.784814 -2.784811 l 1.83023,-1.835437 1.830231,-1.835438 -1.242171,-3.419026 c -0.795163,-2.188655 -1.543144,-3.928583 -2.078533,-4.835016 -0.459999,-0.778795 -0.836362,-1.48984 -0.836362,-1.5801 0,-0.104222 1.132644,-0.147674 3.103782,-0.119073 l 3.103782,0.04504 1.414282,4.27822 c 0.905184,2.73819 1.515,4.334584 1.694076,4.4348 0.153886,0.08612 0.895537,0.134925 1.648115,0.108458 l 1.368322,-0.04812 0.04516,-3.030039 c 0.03726,-2.500363 -0.0092,-3.259359 -0.265531,-4.341861 -0.170876,-0.721501 -0.271894,-1.350611 -0.224482,-1.398022 0.04741,-0.04741 1.451864,-0.0862 3.121009,-0.0862 2.319003,0 3.034136,0.04881 3.031967,0.206919 -0.0013,0.113806 -0.149261,0.7656 -0.328231,1.448432 -0.303509,1.158006 -0.325588,1.828984 -0.328228,9.975581 -0.0029,8.230427 0.01622,8.802958 0.328228,9.928775 0.182088,0.65709 0.33107,1.289316 0.33107,1.404953 0,0.166616 -1.417074,0.209727 -6.828316,0.207747 l -6.82832,-0.0023 z m 9.711644,-2.099087 c 0.224716,-0.08623 0.261841,-0.504005 0.261841,-2.946522 0,-1.992878 -0.05955,-2.905593 -0.198642,-3.044687 -0.131129,-0.13113 -0.836255,-0.198643 -2.074691,-0.198643 -1.679913,0 -1.962629,0.04387 -2.704189,0.419652 -1.148498,0.581987 -1.476948,1.177334 -1.477725,2.678514 -8.45e-4,1.610149 0.293303,2.193252 1.383743,2.743174 0.758324,0.382435 1.050452,0.429941 2.699091,0.438921 1.016802,0.0055 1.966559,-0.03514 2.110572,-0.09041 z m 7.051613,4.031935 c 0.0013,-0.02276 0.149261,-0.600061 0.328232,-1.282894 0.304159,-1.160494 0.325396,-1.824877 0.325396,-10.180405 0,-8.355527 -0.0212,-9.019915 -0.325396,-10.180405 C 38.739532,9.571511 38.591829,8.956961 38.590271,8.888678 38.588971,8.820398 41.66134,8.764527 45.41834,8.764527 h 6.830906 l 1.942452,1.947523 1.942449,1.947523 v 2.891786 2.891787 l -1.803855,1.823475 -1.803852,1.823476 1.282602,3.414947 c 0.742882,1.977927 1.641225,4.032824 2.13483,4.883281 l 0.852219,1.468341 -3.091645,0.04514 c -1.700406,0.02484 -3.14478,-0.01242 -3.209722,-0.08277 -0.06494,-0.07035 -0.726356,-2.012245 -1.469814,-4.315324 -1.204609,-3.731633 -1.396938,-4.204592 -1.767009,-4.345293 -0.595796,-0.22652 -2.605155,-0.197721 -2.843635,0.04076 -0.139049,0.139047 -0.198646,1.049861 -0.198646,3.035917 0,2.295431 0.06323,3.08449 0.331073,4.131749 0.182088,0.711957 0.331069,1.357047 0.331069,1.433528 0,0.07648 -1.415327,0.139055 -3.145163,0.139055 -1.729842,0 -3.143892,-0.01863 -3.142328,-0.04138 z M 49.350095,18.6124 c 1.032763,-0.523341 1.486928,-1.328503 1.486928,-2.636076 0,-1.397502 -0.504519,-2.292162 -1.563405,-2.772371 -0.780612,-0.354011 -1.006655,-0.37739 -2.910781,-0.30105 l -2.064449,0.08277 -0.04547,2.792206 c -0.03124,1.918763 0.01395,2.863779 0.14442,3.021014 0.142154,0.171286 0.685571,0.228809 2.161554,0.228809 1.776811,0 2.05264,-0.04104 2.791205,-0.415299 z"
       id="path914" />
    <text
       xml:space="preserve"
       style="font-style:normal;font-weight:normal;font-size:9.87778px;line-height:1.25;font-family:sans-serif;fill:#000000;fill-opacity:1;stroke:none;stroke-width:0.123663"
       x="8.7290802"
       y="60.624954"
       id="text1836"><tspan
         sodipodi:role="line"
         id="tspan1834"
         style="font-style:normal;font-variant:normal;font-weight:normal;font-stretch:normal;font-size:9.87778px;font-family:Brothers;-inkscape-font-specification:Brothers;stroke-width:0.123663"
         x="8.7290802"
         y="60.624954">Jack KI7RMU</tspan></text>
    <text
       xml:space="preserve"
       style="font-style:normal;font-weight:normal;font-size:6.35px;line-height:1.25;font-family:sans-serif;fill:#000000;fill-opacity:1;stroke:none;stroke-width:0.146714"
       x="19.628147"
       y="50.086254"
       id="text2764"><tspan
         sodipodi:role="line"
         id="tspan2762"
         style="font-style:normal;font-variant:normal;font-weight:500;font-stretch:normal;font-size:6.35px;font-family:Brothers;-inkscape-font-specification:'Brothers Medium';stroke-width:0.146714"
         x="19.628147"
         y="50.086254">FIRST PLACE</tspan></text>
    <text
       xml:space="preserve"
       style="font-style:normal;font-weight:normal;font-size:4.93889px;line-height:1.25;font-family:sans-serif;fill:#000000;fill-opacity:1;stroke:none;stroke-width:0.112291"
       x="12.087521"
       y="80.59935"
       id="text2764-2"><tspan
         sodipodi:role="line"
         id="tspan2762-1"
         style="font-style:normal;font-variant:normal;font-weight:normal;font-stretch:normal;font-size:4.93889px;font-family:Brothers;-inkscape-font-specification:Brothers;stroke-width:0.112291"
         x="12.087521"
         y="80.59935">Repeater Roundabout</tspan></text>
    <text
       xml:space="preserve"
       style="font-style:normal;font-weight:normal;font-size:6.35px;line-height:1.25;font-family:sans-serif;fill:#000000;fill-opacity:1;stroke:none;stroke-width:0.146714"
       x="30.518362"
       y="88.112938"
       id="text2764-8"><tspan
         sodipodi:role="line"
         id="tspan2762-9"
         style="font-style:normal;font-variant:normal;font-weight:normal;font-stretch:normal;font-size:6.35px;font-family:Brothers;-inkscape-font-specification:Brothers;stroke-width:0.146714"
         x="30.518362"
         y="88.112938">2022</tspan></text>
    <path
       style="fill:#000000;stroke:#000000;stroke-width:0.199161;stroke-miterlimit:4;stroke-dasharray:none;stroke-opacity:1"
       d="m 33.621893,69.743882 c -1.009253,-0.100177 -2.072438,-0.438889 -2.7797,-0.885563 -0.826738,-0.522129 -1.216694,-0.711361 -1.889573,-0.916945 -0.516811,-0.157901 -1.157814,-0.269546 -1.680447,-0.292688 -0.30648,-0.01357 -0.394658,-0.0121 -0.734292,0.01229 -0.947132,0.06801 -1.878675,0.339692 -2.67341,0.779701 -0.189156,0.104726 -0.367567,0.20648 -0.396471,0.226119 -0.06513,0.04426 -0.224914,0.04706 -0.224914,0.0039 0,-0.05055 0.577879,-0.367187 0.956202,-0.523929 0.633858,-0.262615 1.471543,-0.466061 2.124451,-0.515961 0.13703,-0.01047 0.46262,-0.01904 0.723534,-0.01904 0.603659,0 1.040742,0.04389 1.557833,0.156425 0.68889,0.149927 1.476288,0.45437 1.962986,0.75898 0.125515,0.07856 0.350858,0.218788 0.500763,0.311627 0.737865,0.456974 1.864449,0.811077 2.810491,0.88338 0.82673,0.06318 1.653854,-0.02858 2.461694,-0.273109 0.500947,-0.151635 1.098962,-0.415547 1.441702,-0.63624 0.904925,-0.582694 1.48805,-0.835618 2.387614,-1.035602 0.548805,-0.122006 0.964797,-0.165461 1.583941,-0.165461 0.598205,0 0.874069,0.0212 1.373072,0.105503 0.775825,0.131075 1.607981,0.432218 2.210888,0.800082 0.703909,0.42949 0.87502,0.523417 1.243124,0.682382 1.022841,0.44171 2.12941,0.616787 3.250913,0.514348 0.97378,-0.08895 2.029016,-0.446956 2.87651,-0.975912 0.06932,-0.04326 0.229573,-0.04738 0.229573,-0.0059 0,0.09225 -1.033079,0.575894 -1.581115,0.740215 -0.68036,0.203996 -1.276094,0.294182 -2.012313,0.304637 -0.553111,0.0079 -0.952604,-0.02044 -1.455209,-0.103056 -0.725493,-0.119257 -1.625484,-0.439017 -2.186455,-0.776831 -0.12452,-0.07499 -0.38738,-0.234249 -0.584132,-0.353919 -0.810882,-0.493205 -1.83261,-0.808931 -2.855464,-0.882376 -0.339636,-0.02439 -0.427814,-0.02586 -0.734293,-0.01229 -1.096119,0.04854 -2.276139,0.404628 -3.13007,0.944553 -0.923731,0.584059 -1.556582,0.851005 -2.462098,1.038549 -0.711436,0.147348 -1.55078,0.187984 -2.315335,0.112095 z"
       id="path69691" />
  </g>
</svg>
